<?xml version="1.0" encoding="UTF-8"?>
<svg id="Layer_1" data-name="Layer 1" xmlns="http://www.w3.org/2000/svg" viewBox="0 0 628.63 137.85">
  <defs>
    <style>
      .cls-1 {
        fill: #000003;
      }

      .cls-2 {
        fill: #007e30;
      }

      .cls-3, .cls-4 {
        fill: #fff;
      }

      .cls-5 {
        fill: #b6181e;
      }

      .cls-4 {
        fill-rule: evenodd;
      }

      .cls-6 {
        fill: none;
        stroke: #fff;
        stroke-linejoin: round;
        stroke-width: 2px;
      }
    </style>
  </defs>
  <rect class="cls-3" x="354.59" y="13.6" width="270.65" height="81.02"/>
  <path class="cls-4" d="M325.47,70.93l13.21-30.55,13.18,30.55h-26.39Zm36.06,22.45h12.75L339.02,13.55h-.7l-35.27,79.83h12.75l5.11-11.92h35.51l5.11,11.92Zm-98.43-40.42V27.4h11.85c7,0,13.02,5.38,13.02,12.67s-5.92,12.95-13.02,12.9h-11.85Zm43.94,40.42l-21.77-31.25c8.59-2.91,14.8-11.69,14.8-21.79,0-13.93-11.4-25.14-25.37-25.14h-23.33l.05,78.17h11.77v-30.22h9.23l20.2,30.22h14.43ZM247.74,15.21h-51.99v12.19h20.09V93.38h11.81V27.4h20.09V15.21Zm-78.11,79.45c15.2,0,26.72-8.94,26.72-22.8,0-12.32-9.21-18.28-21.06-23.7-9.1-4.07-16.02-6.26-16.02-12.37,0-5.51,5.48-9.97,12.35-9.97,5.43,0,10.59,2.95,12.91,8.23l8.75-6.29c-3.08-8.58-11.07-13.96-21.75-13.96-13.46,0-24.14,8.91-24.14,21.71s9.78,17.01,18.56,21.08c8.73,3.92,18.58,8.28,18.58,15.5,0,5.96-6.35,10.18-14.77,10.18-7.19,0-13.43-3.49-16.78-9.6l-9.3,6.94c4.27,9.02,13.64,15.05,25.95,15.05Zm-65.49-12.39c-14.78,0-26.83-12.57-26.83-27.97s12.05-28.1,26.83-28.1,26.93,12.62,26.93,28.1-12.15,27.97-26.93,27.97Zm0,12.39c21.34,0,38.81-18.11,38.81-40.25S125.49,13.82,104.2,13.82s-38.76,18.26-38.76,40.58,17.42,40.25,38.71,40.25ZM48.48,14.99v50.98L.65,13.84H0V93.48H11.78V42.5l48.03,52.18h.48V14.99h-11.81Z"/>
  <path class="cls-1" d="M585.34,37.13c.91-.47,1.98-.57,3.21-.28,1.23,.28,2.48,.81,3.75,1.56-.45-.47-.59-1-.41-1.56,.09-.28,.11-.62,.07-1-.05-.38-.02-.76,.07-1.14,.09-.95,.14-1.94,.14-2.99s-.14-2.02-.41-2.92c-.27-.9-.73-1.64-1.36-2.2-.64-.57-1.5-.9-2.59-1-3.36-.09-6.82,1.16-10.37,3.77-3.55,2.61-6.96,5.9-10.23,9.89-3.27,3.98-6.25,8.25-8.94,12.8-2.68,4.55-4.8,8.68-6.34,12.38-.45,1.04-.91,2.35-1.36,3.91-.45,1.57-.77,3.11-.96,4.62-.18,1.04-.27,2.04-.27,2.99s.2,1.75,.61,2.42c.41,.66,1.02,1.09,1.84,1.28,.82,.19,1.96,.1,3.41-.28,1.36-.38,3.09-1.47,5.18-3.27,2.09-1.8,4.3-3.91,6.62-6.33,2.32-2.42,4.59-5,6.82-7.75,2.23-2.75,4.12-5.22,5.66-7.4,1.36-2.85,2.61-5.62,3.75-8.32,1.14-2.7,1.93-5,2.39-6.9l-.27-2.28Zm-119.39,0c.91-.47,1.98-.57,3.21-.28,1.23,.28,2.48,.81,3.75,1.56-.45-.47-.59-1-.41-1.56,.09-.28,.11-.62,.07-1-.05-.38-.02-.76,.07-1.14,.09-.95,.14-1.94,.14-2.99s-.14-2.02-.41-2.92c-.27-.9-.73-1.64-1.36-2.2-.64-.57-1.5-.9-2.59-1-3.36-.09-6.82,1.16-10.37,3.77-3.55,2.61-6.96,5.9-10.23,9.89-3.27,3.98-6.25,8.25-8.94,12.8-2.68,4.55-4.8,8.68-6.34,12.38-.45,1.04-.91,2.35-1.36,3.91-.45,1.57-.77,3.11-.96,4.62-.18,1.04-.27,2.04-.27,2.99s.2,1.75,.61,2.42c.41,.66,1.02,1.09,1.84,1.28,.82,.19,1.96,.1,3.41-.28,1.36-.38,3.09-1.47,5.18-3.27,2.09-1.8,4.3-3.91,6.62-6.33,2.32-2.42,4.59-5,6.82-7.75,2.23-2.75,4.12-5.22,5.66-7.4,1.36-2.85,2.61-5.62,3.75-8.32,1.14-2.7,1.93-5,2.39-6.9l-.27-2.28Zm-55.93,41.79c-2.56,2.76-5.29,5.48-8.2,8.14-3.09,2.66-6.09,4.72-9,6.19-2.91,1.47-5.59,2.56-8.05,3.27-2.46,.71-4.66,1.14-6.62,1.28-1.96,.14-3.48,.21-4.57,.21-7.09,0-12.21-2.13-15.35-6.4-3.14-4.27-4.25-10.1-3.34-17.5,.82-6.45,2.8-12.76,5.93-18.92,3.14-6.16,7.57-12.85,13.3-20.06,2-2.37,4.5-4.91,7.5-7.61,3-2.7,6.28-5.19,9.82-7.47,3.55-2.28,7.25-4.13,11.12-5.55,3.87-1.42,7.57-2.09,11.12-1.99,3.73,.09,6.53,1.4,8.39,3.91,1.86,2.51,2.43,5.81,1.71,9.89-.55,3.79-2.18,7.59-4.91,11.38-1.09,1.23-2.21,1.97-3.34,2.21-1.14,.24-2.09,.07-2.86-.5-.77-.57-1.32-1.47-1.64-2.7-.32-1.23-.2-2.66,.34-4.27,1.09-1.52,1.73-3.03,1.91-4.55,.09-.47,.02-.83-.2-1.07-.23-.24-.71-.26-1.43-.07-3.64,.76-7.25,2.61-10.85,5.55-3.59,2.94-6.94,6.31-10.03,10.1-3.09,3.79-5.82,7.75-8.19,11.88-2.36,4.13-4.14,7.75-5.32,10.88l-1.5,5.69c-.18,1.42-.27,2.82-.27,4.2s.16,2.66,.48,3.84c.32,1.19,.82,2.23,1.5,3.13,.68,.9,1.57,1.49,2.66,1.78l-.27-.14c1.73,.47,3.84,.33,6.34-.43,2.5-.76,5.23-2.11,8.19-4.05,2.96-1.94,6.07-4.48,9.35-7.61,3.27-3.13,6.55-6.83,9.82-11.1,.73-.96,1.44-1.93,2.14-2.91l.32-.65c2.09-4.17,4.59-8.35,7.5-12.52,2.91-4.17,6.12-8.2,9.62-12.09,3.5-3.89,7.21-7.35,11.12-10.39,3.91-3.04,7.89-5.45,11.94-7.26,4.05-1.8,8.07-2.7,12.07-2.7,1.18,0,2.32,.09,3.41,.28,1.09,.19,2.27,.47,3.55,.85,2.18,.76,3.84,1.97,4.98,3.63,1.14,1.66,1.91,3.6,2.32,5.83,.41,2.23,.55,4.6,.41,7.11-.14,2.51-.48,5-1.02,7.47-.09,.57-.43,1.02-1.02,1.35-.59,.33-1.3,.57-2.11,.71-.82,.14-1.66,.21-2.52,.21s-1.61-.14-2.25-.43c1.27,.85,2.46,1.85,3.55,2.99,1.09,1.14,2,2.39,2.73,3.77,.73,1.38,1.21,2.77,1.43,4.2,.23,1.42,.07,2.8-.48,4.13-.36,.66-.77,1.4-1.23,2.2-.45,.81-.91,1.64-1.36,2.49-1,1.8-2.02,3.75-3.07,5.83-1.05,2.09-2.02,4.13-2.93,6.12-.91,1.99-1.71,3.86-2.39,5.62-.68,1.75-1.11,3.25-1.3,4.48,0,.19-.07,.33-.2,.43-.14,.09-.25,.19-.34,.28h.96c2.73-.95,5.37-2.51,7.91-4.7,2.03-1.74,4.01-3.67,5.95-5.8,.76-2.13,1.73-4.23,2.92-6.3,2.18-3.79,4.77-6.83,7.78-9.1l3.82-5.12c3.09-4.55,6.25-9.06,9.48-13.52,3.23-4.46,6.57-8.77,10.03-12.95,.73-.76,1.36-1.52,1.91-2.28,.55-.76,1.14-1.52,1.77-2.28,1.91-2.56,4.12-5.31,6.62-8.25,2.5-2.94,6.03-6.35,10.57-10.24,1.27,.76,2.82,1.83,4.64,3.2,1.82,1.38,3.34,2.89,4.57,4.55,1.23,1.66,1.93,3.39,2.11,5.19,.18,1.8-.68,3.41-2.59,4.84l.41-.14c-1.82,1.61-3.11,2.87-3.89,3.77-.77,.9-1.61,1.97-2.52,3.2l-2.18,2.85c-2.36,3.32-4.16,6.83-5.39,10.53-1.23,3.7-2.16,7.35-2.8,10.95-.36,1.99-.64,4.01-.82,6.05-.18,2.04-.36,4.1-.55,6.19l-.96,8.54c-.55,4.27-1.68,8.18-3.41,11.74-1.73,3.56-3.89,6.57-6.48,9.03-2.59,2.47-5.5,4.34-8.73,5.62-3.23,1.28-6.62,1.83-10.16,1.64-3.55-.28-6.55-1.09-9-2.42-2.46-1.33-4.39-2.99-5.8-4.98-1.11-1.58-1.93-3.33-2.45-5.26-1.49,1.42-3.01,2.8-4.59,4.12-.82,.76-1.84,1.59-3.07,2.49-1.23,.9-2.59,1.75-4.09,2.56-1.5,.81-3.11,1.47-4.84,1.99-1.73,.52-3.5,.74-5.32,.64-4.37-.38-7.43-1.99-9.21-4.84-1.77-2.85-2.43-6.4-1.98-10.67-4.09,3.98-8.23,7.42-12.41,10.31-4.18,2.89-8.19,4.39-12.01,4.48-3.46-.38-6.21-1.4-8.25-3.06-2.05-1.66-3.57-3.63-4.57-5.9-1-2.28-1.57-4.72-1.71-7.33-.03-.66-.06-1.31-.06-1.95Zm102.18-28.85c.09-.76,.23-1.54,.41-2.35,.18-.81,.36-1.59,.55-2.35l-5.73,7.97-.14,.14c.18,.76,.36,2.06,.55,3.91,.18,1.85,.23,3.79,.14,5.83-.09,2.04-.34,3.98-.75,5.83-.41,1.85-1.07,3.2-1.98,4.05-.55-1.52-1.46-2.39-2.73-2.63-1.27-.24-2.59-.02-3.96,.64-1.36,.66-2.59,1.59-3.68,2.77-1.09,1.19-1.77,2.39-2.05,3.63-.09,.47-.09,1.07,0,1.78,.09,.71,.23,1.4,.41,2.06,.64,1.52,1.59,2.63,2.86,3.34,1.27,.71,2.55,1.16,3.82,1.35,1.36,.19,2.59-.05,3.68-.71,1.09-.66,2.07-1.56,2.93-2.7,.86-1.14,1.59-2.47,2.18-3.98s1.02-3.13,1.3-4.84c.36-3.41,.64-7.02,.82-10.81,.18-1.99,.34-4.08,.48-6.26,.14-2.18,.43-4.41,.89-6.69Zm89.09-12.95c-.09,.57-.43,1.02-1.02,1.35-.59,.33-1.3,.57-2.11,.71-.82,.14-1.66,.21-2.52,.21s-1.61-.14-2.25-.43c1.27,.85,2.46,1.85,3.55,2.99,1.09,1.14,2,2.39,2.73,3.77,.73,1.38,1.21,2.77,1.43,4.2,.23,1.42,.07,2.8-.48,4.13-.36,.66-.77,1.4-1.23,2.2-.45,.81-.91,1.64-1.36,2.49-1,1.8-2.02,3.75-3.07,5.83-1.05,2.09-2.02,4.13-2.93,6.12-.91,1.99-1.71,3.86-2.39,5.62-.68,1.75-1.11,3.25-1.3,4.48,0,.19-.07,.33-.2,.43-.14,.09-.25,.19-.34,.28h.96c2.73-.95,5.37-2.51,7.91-4.7,2.55-2.18,5.02-4.67,7.44-7.47,2.41-2.8,4.73-5.79,6.96-8.96,2.23-3.18,4.34-6.24,6.34-9.18,.73-.76,1.27-1.42,1.64-1.99,.36-.57,.73-1.19,1.09-1.85,.36-.47,1.05-.59,2.05-.36,1,.24,1.96,.69,2.86,1.35,.91,.66,1.64,1.45,2.18,2.35,.55,.9,.55,1.68,0,2.35l-3.96,5.69v.14c-3.91,5.6-7.98,11.12-12.21,16.57-4.23,5.45-8.94,10.36-14.12,14.72-.82,.76-1.84,1.59-3.07,2.49-1.23,.9-2.59,1.75-4.09,2.56-1.5,.81-3.11,1.47-4.84,1.99-1.73,.52-3.5,.74-5.32,.64-4.37-.38-7.43-1.99-9.21-4.84-1.77-2.85-2.43-6.4-1.98-10.67-4.09,3.98-8.23,7.42-12.41,10.31-4.18,2.89-8.19,4.39-12.01,4.48-3.46-.38-6.21-1.4-8.25-3.06-2.05-1.66-3.57-3.63-4.57-5.9-1-2.28-1.57-4.72-1.7-7.33-.14-2.61-.07-5.05,.2-7.33,.36-2.09,.77-3.79,1.23-5.12,.91-3.51,2.41-7.35,4.5-11.52,2.09-4.17,4.59-8.35,7.5-12.52,2.91-4.17,6.12-8.2,9.62-12.09,3.5-3.89,7.21-7.35,11.12-10.39,3.91-3.04,7.89-5.45,11.94-7.26,4.05-1.8,8.07-2.7,12.07-2.7,1.18,0,2.32,.09,3.41,.28,1.09,.19,2.27,.47,3.55,.85,2.18,.76,3.84,1.97,4.98,3.63,1.14,1.66,1.91,3.6,2.32,5.83,.41,2.23,.55,4.6,.41,7.11-.14,2.51-.48,5-1.02,7.47Z"/>
  <path class="cls-6" d="M585.34,37.13c.91-.47,1.98-.57,3.21-.28,1.23,.28,2.48,.81,3.75,1.56-.45-.47-.59-1-.41-1.56,.09-.28,.11-.62,.07-1-.05-.38-.02-.76,.07-1.14,.09-.95,.14-1.94,.14-2.99s-.14-2.02-.41-2.92c-.27-.9-.73-1.64-1.36-2.2-.64-.57-1.5-.9-2.59-1-3.36-.09-6.82,1.16-10.37,3.77-3.55,2.61-6.96,5.9-10.23,9.89-3.27,3.98-6.25,8.25-8.94,12.8-2.68,4.55-4.8,8.68-6.34,12.38-.45,1.04-.91,2.35-1.36,3.91-.45,1.57-.77,3.11-.96,4.62-.18,1.04-.27,2.04-.27,2.99s.2,1.75,.61,2.42c.41,.66,1.02,1.09,1.84,1.28,.82,.19,1.96,.1,3.41-.28,1.36-.38,3.09-1.47,5.18-3.27,2.09-1.8,4.3-3.91,6.62-6.33,2.32-2.42,4.59-5,6.82-7.75,2.23-2.75,4.12-5.22,5.66-7.4,1.36-2.85,2.61-5.62,3.75-8.32,1.14-2.7,1.93-5,2.39-6.9l-.27-2.28Zm-119.39,0c.91-.47,1.98-.57,3.21-.28,1.23,.28,2.48,.81,3.75,1.56-.45-.47-.59-1-.41-1.56,.09-.28,.11-.62,.07-1-.05-.38-.02-.76,.07-1.14,.09-.95,.14-1.94,.14-2.99s-.14-2.02-.41-2.92c-.27-.9-.73-1.64-1.36-2.2-.64-.57-1.5-.9-2.59-1-3.36-.09-6.82,1.16-10.37,3.77-3.55,2.61-6.96,5.9-10.23,9.89-3.27,3.98-6.25,8.25-8.94,12.8-2.68,4.55-4.8,8.68-6.34,12.38-.45,1.04-.91,2.35-1.36,3.91-.45,1.57-.77,3.11-.96,4.62-.18,1.04-.27,2.04-.27,2.99s.2,1.75,.61,2.42c.41,.66,1.02,1.09,1.84,1.28,.82,.19,1.96,.1,3.41-.28,1.36-.38,3.09-1.47,5.18-3.27,2.09-1.8,4.3-3.91,6.62-6.33,2.32-2.42,4.59-5,6.82-7.75,2.23-2.75,4.12-5.22,5.66-7.4,1.36-2.85,2.61-5.62,3.75-8.32,1.14-2.7,1.93-5,2.39-6.9l-.27-2.28Zm-55.93,41.79c-2.56,2.76-5.29,5.48-8.2,8.14-3.09,2.66-6.09,4.72-9,6.19-2.91,1.47-5.59,2.56-8.05,3.27-2.46,.71-4.66,1.14-6.62,1.28-1.96,.14-3.48,.21-4.57,.21-7.09,0-12.21-2.13-15.35-6.4-3.14-4.27-4.25-10.1-3.34-17.5,.82-6.45,2.8-12.76,5.93-18.92,3.14-6.16,7.57-12.85,13.3-20.06,2-2.37,4.5-4.91,7.5-7.61,3-2.7,6.28-5.19,9.82-7.47,3.55-2.28,7.25-4.13,11.12-5.55,3.87-1.42,7.57-2.09,11.12-1.99,3.73,.09,6.53,1.4,8.39,3.91,1.86,2.51,2.43,5.81,1.71,9.89-.55,3.79-2.18,7.59-4.91,11.38-1.09,1.23-2.21,1.97-3.34,2.21-1.14,.24-2.09,.07-2.86-.5-.77-.57-1.32-1.47-1.64-2.7-.32-1.23-.2-2.66,.34-4.27,1.09-1.52,1.73-3.03,1.91-4.55,.09-.47,.02-.83-.2-1.07-.23-.24-.71-.26-1.43-.07-3.64,.76-7.25,2.61-10.85,5.55-3.59,2.94-6.94,6.31-10.03,10.1-3.09,3.79-5.82,7.75-8.19,11.88-2.36,4.13-4.14,7.75-5.32,10.88l-1.5,5.69c-.18,1.42-.27,2.82-.27,4.2s.16,2.66,.48,3.84c.32,1.19,.82,2.23,1.5,3.13,.68,.9,1.57,1.49,2.66,1.78l-.27-.14c1.73,.47,3.84,.33,6.34-.43,2.5-.76,5.23-2.11,8.19-4.05,2.96-1.94,6.07-4.48,9.35-7.61,3.27-3.13,6.55-6.83,9.82-11.1,.73-.96,1.44-1.93,2.14-2.91l.32-.65c2.09-4.17,4.59-8.35,7.5-12.52,2.91-4.17,6.12-8.2,9.62-12.09,3.5-3.89,7.21-7.35,11.12-10.39,3.91-3.04,7.89-5.45,11.94-7.26,4.05-1.8,8.07-2.7,12.07-2.7,1.18,0,2.32,.09,3.41,.28,1.09,.19,2.27,.47,3.55,.85,2.18,.76,3.84,1.97,4.98,3.63,1.14,1.66,1.91,3.6,2.32,5.83,.41,2.23,.55,4.6,.41,7.11-.14,2.51-.48,5-1.02,7.47-.09,.57-.43,1.02-1.02,1.35-.59,.33-1.3,.57-2.11,.71-.82,.14-1.66,.21-2.52,.21s-1.61-.14-2.25-.43c1.27,.85,2.46,1.85,3.55,2.99,1.09,1.14,2,2.39,2.73,3.77,.73,1.38,1.21,2.77,1.43,4.2,.23,1.42,.07,2.8-.48,4.13-.36,.66-.77,1.4-1.23,2.2-.45,.81-.91,1.64-1.36,2.49-1,1.8-2.02,3.75-3.07,5.83-1.05,2.09-2.02,4.13-2.93,6.12-.91,1.99-1.71,3.86-2.39,5.62-.68,1.75-1.11,3.25-1.3,4.48,0,.19-.07,.33-.2,.43-.14,.09-.25,.19-.34,.28h.96c2.73-.95,5.37-2.51,7.91-4.7,2.03-1.74,4.01-3.67,5.95-5.8,.76-2.13,1.73-4.23,2.92-6.3,2.18-3.79,4.77-6.83,7.78-9.1l3.82-5.12c3.09-4.55,6.25-9.06,9.48-13.52,3.23-4.46,6.57-8.77,10.03-12.95,.73-.76,1.36-1.52,1.91-2.28,.55-.76,1.14-1.52,1.77-2.28,1.91-2.56,4.12-5.31,6.62-8.25,2.5-2.94,6.03-6.35,10.57-10.24,1.27,.76,2.82,1.83,4.64,3.2,1.82,1.38,3.34,2.89,4.57,4.55,1.23,1.66,1.93,3.39,2.11,5.19,.18,1.8-.68,3.41-2.59,4.84l.41-.14c-1.82,1.61-3.11,2.87-3.89,3.77-.77,.9-1.61,1.97-2.52,3.2l-2.18,2.85c-2.36,3.32-4.16,6.83-5.39,10.53-1.23,3.7-2.16,7.35-2.8,10.95-.36,1.99-.64,4.01-.82,6.05-.18,2.04-.36,4.1-.55,6.19l-.96,8.54c-.55,4.27-1.68,8.18-3.41,11.74-1.73,3.56-3.89,6.57-6.48,9.03-2.59,2.47-5.5,4.34-8.73,5.62-3.23,1.28-6.62,1.83-10.16,1.64-3.55-.28-6.55-1.09-9-2.42-2.46-1.33-4.39-2.99-5.8-4.98-1.11-1.58-1.93-3.33-2.45-5.26-1.49,1.42-3.01,2.8-4.59,4.12-.82,.76-1.84,1.59-3.07,2.49-1.23,.9-2.59,1.75-4.09,2.56-1.5,.81-3.11,1.47-4.84,1.99-1.73,.52-3.5,.74-5.32,.64-4.37-.38-7.43-1.99-9.21-4.84-1.77-2.85-2.43-6.4-1.98-10.67-4.09,3.98-8.23,7.42-12.41,10.31-4.18,2.89-8.19,4.39-12.01,4.48-3.46-.38-6.21-1.4-8.25-3.06-2.05-1.66-3.57-3.63-4.57-5.9-1-2.28-1.57-4.72-1.71-7.33-.03-.66-.06-1.31-.06-1.95Zm102.18-28.85c.09-.76,.23-1.54,.41-2.35,.18-.81,.36-1.59,.55-2.35l-5.73,7.97-.14,.14c.18,.76,.36,2.06,.55,3.91,.18,1.85,.23,3.79,.14,5.83-.09,2.04-.34,3.98-.75,5.83-.41,1.85-1.07,3.2-1.98,4.05-.55-1.52-1.46-2.39-2.73-2.63-1.27-.24-2.59-.02-3.96,.64-1.36,.66-2.59,1.59-3.68,2.77-1.09,1.19-1.77,2.39-2.05,3.63-.09,.47-.09,1.07,0,1.78,.09,.71,.23,1.4,.41,2.06,.64,1.52,1.59,2.63,2.86,3.34,1.27,.71,2.55,1.16,3.82,1.35,1.36,.19,2.59-.05,3.68-.71,1.09-.66,2.07-1.56,2.93-2.7,.86-1.14,1.59-2.47,2.18-3.98s1.02-3.13,1.3-4.84c.36-3.41,.64-7.02,.82-10.81,.18-1.99,.34-4.08,.48-6.26,.14-2.18,.43-4.41,.89-6.69Zm89.09-12.95c-.09,.57-.43,1.02-1.02,1.35-.59,.33-1.3,.57-2.11,.71-.82,.14-1.66,.21-2.52,.21s-1.61-.14-2.25-.43c1.27,.85,2.46,1.85,3.55,2.99,1.09,1.14,2,2.39,2.73,3.77,.73,1.38,1.21,2.77,1.43,4.2,.23,1.42,.07,2.8-.48,4.13-.36,.66-.77,1.4-1.23,2.2-.45,.81-.91,1.64-1.36,2.49-1,1.8-2.02,3.75-3.07,5.83-1.05,2.09-2.02,4.13-2.93,6.12-.91,1.99-1.71,3.86-2.39,5.62-.68,1.75-1.11,3.25-1.3,4.48,0,.19-.07,.33-.2,.43-.14,.09-.25,.19-.34,.28h.96c2.73-.95,5.37-2.51,7.91-4.7,2.55-2.18,5.02-4.67,7.44-7.47,2.41-2.8,4.73-5.79,6.96-8.96,2.23-3.18,4.34-6.24,6.34-9.18,.73-.76,1.27-1.42,1.64-1.99,.36-.57,.73-1.19,1.09-1.85,.36-.47,1.05-.59,2.05-.36,1,.24,1.96,.69,2.86,1.35,.91,.66,1.64,1.45,2.18,2.35,.55,.9,.55,1.68,0,2.35l-3.96,5.69v.14c-3.91,5.6-7.98,11.12-12.21,16.57-4.23,5.45-8.94,10.36-14.12,14.72-.82,.76-1.84,1.59-3.07,2.49-1.23,.9-2.59,1.75-4.09,2.56-1.5,.81-3.11,1.47-4.84,1.99-1.73,.52-3.5,.74-5.32,.64-4.37-.38-7.43-1.99-9.21-4.84-1.77-2.85-2.43-6.4-1.98-10.67-4.09,3.98-8.23,7.42-12.41,10.31-4.18,2.89-8.19,4.39-12.01,4.48-3.46-.38-6.21-1.4-8.25-3.06-2.05-1.66-3.57-3.63-4.57-5.9-1-2.28-1.57-4.72-1.7-7.33-.14-2.61-.07-5.05,.2-7.33,.36-2.09,.77-3.79,1.23-5.12,.91-3.51,2.41-7.35,4.5-11.52,2.09-4.17,4.59-8.35,7.5-12.52,2.91-4.17,6.12-8.2,9.62-12.09,3.5-3.89,7.21-7.35,11.12-10.39,3.91-3.04,7.89-5.45,11.94-7.26,4.05-1.8,8.07-2.7,12.07-2.7,1.18,0,2.32,.09,3.41,.28,1.09,.19,2.27,.47,3.55,.85,2.18,.76,3.84,1.97,4.98,3.63,1.14,1.66,1.91,3.6,2.32,5.83,.41,2.23,.55,4.6,.41,7.11-.14,2.51-.48,5-1.02,7.47Z"/>
  <rect class="cls-2" x="596.4" y="112.06" width="9.62" height="18.92"/>
  <rect class="cls-3" x="606.01" y="112.06" width="9.62" height="18.92"/>
  <rect class="cls-5" x="615.63" y="112.06" width="9.62" height="18.92"/>
  <path class="cls-4" d="M583.49,130.89v-11.48c0-2.52-1.16-4.05-2.82-4.81-2.12-1-5.8-.8-7.7,.8l.13-1.13h-1.86v16.62h1.86v-14.1c2.82-1.59,8.56-2.16,8.56,2.72v11.38h1.82Zm-23.79-5.74c0,2.98-2.19,4.41-4.48,4.41-2.49,0-4.31-1.33-4.31-4.21v-5.07c0-3.58,2.32-4.61,4.31-4.61,2.16,0,4.48,1.1,4.48,4.08v5.41Zm-1.69,12.7c2.52-.8,3.55-2.16,3.55-4.84v-18.74h-1.86l.13,1.92c-.99-1.59-2.59-2.22-4.48-2.22-3.78,0-6.3,2.19-6.3,6.14v4.94c0,4.15,2.36,6.24,6.17,6.24,2.06,0,3.55-.8,4.48-2.42v4.11c0,1.76-.7,2.89-2.19,3.45l.5,1.43Zm-18.12-6.97v-16.62h-1.86v16.62h1.86Zm-.9-21.33c.6,0,1.09-.53,1.09-1.13s-.5-1.09-1.09-1.09-1.13,.5-1.13,1.09,.53,1.13,1.13,1.13Zm-21.27,17.12c.1,2.49,2.19,4.71,6.14,4.71s5.8-2.16,5.8-4.64c0-6-9.35-4.31-9.72-8.13-.2-2.09,1.79-3.12,3.85-3.12,1.89,0,3.08,.86,3.08,.86l.63-1.53s-1.36-.96-3.71-.96c-4.38,0-5.9,2.82-5.67,4.91,.6,5.37,9.69,3.58,9.69,7.99,0,2.26-2.35,2.89-3.95,2.89-1.89,0-4.08-.83-4.38-2.98h-1.76Zm-9.86-4.48l-8.23,.4v-2.92c0-3.02,1.99-4.11,4.21-4.11,1.33,0,4.01,.63,4.01,3.75v2.89Zm.3,6.1c-4.01,2.12-8.52,1.86-8.52-1.86v-2.02l10.08-.56v-4.31c0-3.48-2.16-5.57-5.84-5.57s-6.1,2.02-6.1,5.67v6.8c0,3.45,2.36,4.94,5.64,4.84,1.89-.03,3.91-.6,5.47-1.56l-.73-1.43Zm-21.43-3.72c0,4.08-3.25,4.61-5.71,4.61h-4.51v-19.9h4.71c2.49,.03,5.51,1.49,5.51,5.54v9.75Zm-5.17,6.3c3.81,0,7.03-1.49,7.03-6.63v-9.09c0-4.38-2.56-7.53-7.7-7.53h-6.24v23.22l6.9,.03Zm-19.57,0v-11.48c0-2.52-1.16-4.05-2.82-4.81-2.12-1-5.8-.8-7.7,.8l.13-1.13h-1.86v16.62h1.86v-14.1c2.82-1.59,8.56-2.16,8.56,2.72v11.38h1.82Zm-23.52-1.53c-5.34,.73-9.09,.03-9.09-3.85v-2.89c0-5.17,6.14-3.18,9.09-1.79v8.52Zm1.86-8.36c0-3.18,0-7-6.9-7l-.1,1.43c4.44,0,5.14,1.99,5.14,3.98-2.16-1.69-6.27-2.45-8.62-1.29-1.36,.66-2.29,2.02-2.29,4.41v2.75c0,7.1,7.5,6.1,12.77,5.61v-9.88Zm-21.57,9.88v-16.62h-1.86v16.62h1.86Zm-.9-21.33c.6,0,1.09-.53,1.09-1.13s-.5-1.09-1.09-1.09-1.13,.5-1.13,1.09,.53,1.13,1.13,1.13Zm-10.65,21.33v-23.22h-1.86v23.22h1.86Zm-13.14-1.53c-5.34,.73-9.09,.03-9.09-3.85v-2.89c0-5.17,6.14-3.18,9.09-1.79v8.52Zm1.86-8.36c0-3.18,0-7-6.9-7l-.1,1.43c4.44,0,5.14,1.99,5.14,3.98-2.16-1.69-6.27-2.45-8.62-1.29-1.36,.66-2.29,2.02-2.29,4.41v2.75c0,7.1,7.5,6.1,12.77,5.61v-9.88Zm-21.13,8.89c-1.56-.53-2.19-1.76-2.19-3.38v-10.48h3.18l.8-1.76h-3.98v-6.6h-1.86v18.84c0,2.59,1.03,4.08,3.52,4.81l.53-1.43Zm-14.2,.99v-23.22h-4.08v1.63l2.22,.07v21.53h1.86Z"/>
</svg>