<?xml version="1.0" encoding="utf-8"?>
<!-- Generator: Adobe Illustrator 27.0.0, SVG Export Plug-In . SVG Version: 6.00 Build 0)  -->
<svg version="1.1" id="Layer_1" xmlns="http://www.w3.org/2000/svg" xmlns:xlink="http://www.w3.org/1999/xlink" x="0px" y="0px"
	 viewBox="0 0 1253 274.8" style="enable-background:new 0 0 1253 274.8;" xml:space="preserve">
<style type="text/css">
	.st0{display:none;}
	.st1{display:inline;fill-rule:evenodd;clip-rule:evenodd;fill:#000003;}
	.st2{fill:#FFFFFF;stroke:#000000;stroke-miterlimit:10;}
	.st3{fill:#000003;}
	.st4{fill-rule:evenodd;clip-rule:evenodd;fill:#000003;}
	.st5{fill:#FFFFFF;}
	.st6{fill:none;stroke:#000003;stroke-width:2;stroke-linejoin:round;}
	.st7{fill:#007E30;}
	.st8{fill:#B6181E;}
</style>
<g id="Layer_2" class="st0">
	<rect class="st1" width="1257.4" height="274.8"/>
</g>
<path class="st2" d="M932.9,215H282V65h800v0.9C1082,148.2,1015.2,215,932.9,215z"/>
<rect x="665.2" y="82.1" class="st3" width="270.6" height="81"/>
<path class="st4" d="M636.1,139.4l13.2-30.5l13.2,30.5H636.1L636.1,139.4z M672.1,161.9h12.8L649.6,82h-0.7l-35.3,79.8h12.8
	l5.1-11.9H667L672.1,161.9L672.1,161.9z M573.7,121.4V95.9h11.9c7,0,13,5.4,13,12.7s-5.9,12.9-13,12.9L573.7,121.4L573.7,121.4z
	 M617.6,161.9l-21.8-31.2c8.6-2.9,14.8-11.7,14.8-21.8c0-13.9-11.4-25.1-25.4-25.1H562l0,78.2h11.8v-30.2h9.2l20.2,30.2L617.6,161.9
	L617.6,161.9z M558.3,83.7h-52v12.2h20.1v66h11.8v-66h20.1V83.7L558.3,83.7z M480.2,163.1c15.2,0,26.7-8.9,26.7-22.8
	c0-12.3-9.2-18.3-21.1-23.7c-9.1-4.1-16-6.3-16-12.4c0-5.5,5.5-10,12.4-10c5.4,0,10.6,2.9,12.9,8.2l8.8-6.3
	c-3.1-8.6-11.1-14-21.8-14c-13.5,0-24.1,8.9-24.1,21.7s9.8,17,18.6,21.1c8.7,3.9,18.6,8.3,18.6,15.5c0,6-6.4,10.2-14.8,10.2
	c-7.2,0-13.4-3.5-16.8-9.6l-9.3,6.9C458.5,157.1,467.9,163.1,480.2,163.1z M414.7,150.7c-14.8,0-26.8-12.6-26.8-28
	s12-28.1,26.8-28.1s26.9,12.6,26.9,28.1S429.5,150.7,414.7,150.7z M414.7,163.1c21.3,0,38.8-18.1,38.8-40.2s-17.5-40.6-38.8-40.6
	S376,100.6,376,122.9S393.5,163.1,414.7,163.1L414.7,163.1z M359.1,83.5v51l-47.8-52.1h-0.7v79.6h11.8v-51l48,52.2h0.5V83.5
	C370.9,83.5,359.1,83.5,359.1,83.5z"/>
<path class="st5" d="M895.9,105.6c0.9-0.5,2-0.6,3.2-0.3c1.2,0.3,2.5,0.8,3.8,1.6c-0.5-0.5-0.6-1-0.4-1.6c0.1-0.3,0.1-0.6,0.1-1
	c0-0.4,0-0.8,0.1-1.1c0.1-0.9,0.1-1.9,0.1-3s-0.1-2-0.4-2.9c-0.3-0.9-0.7-1.6-1.4-2.2c-0.6-0.6-1.5-0.9-2.6-1
	c-3.4-0.1-6.8,1.2-10.4,3.8s-7,5.9-10.2,9.9c-3.3,4-6.2,8.2-8.9,12.8c-2.7,4.6-4.8,8.7-6.3,12.4c-0.5,1-0.9,2.3-1.4,3.9
	c-0.5,1.6-0.8,3.1-1,4.6c-0.2,1-0.3,2-0.3,3s0.2,1.8,0.6,2.4c0.4,0.7,1,1.1,1.8,1.3s2,0.1,3.4-0.3c1.4-0.4,3.1-1.5,5.2-3.3
	c2.1-1.8,4.3-3.9,6.6-6.3s4.6-5,6.8-7.8c2.2-2.7,4.1-5.2,5.7-7.4c1.4-2.8,2.6-5.6,3.8-8.3c1.1-2.7,1.9-5,2.4-6.9L895.9,105.6
	L895.9,105.6z M776.5,105.6c0.9-0.5,2-0.6,3.2-0.3c1.2,0.3,2.5,0.8,3.8,1.6c-0.5-0.5-0.6-1-0.4-1.6c0.1-0.3,0.1-0.6,0.1-1
	c0-0.4,0-0.8,0.1-1.1c0.1-0.9,0.1-1.9,0.1-3s-0.1-2-0.4-2.9c-0.3-0.9-0.7-1.6-1.4-2.2c-0.6-0.6-1.5-0.9-2.6-1
	c-3.4-0.1-6.8,1.2-10.4,3.8s-7,5.9-10.2,9.9c-3.3,4-6.2,8.2-8.9,12.8c-2.7,4.6-4.8,8.7-6.3,12.4c-0.5,1-0.9,2.3-1.4,3.9
	c-0.5,1.6-0.8,3.1-1,4.6c-0.2,1-0.3,2-0.3,3s0.2,1.8,0.6,2.4c0.4,0.7,1,1.1,1.8,1.3s2,0.1,3.4-0.3c1.4-0.4,3.1-1.5,5.2-3.3
	c2.1-1.8,4.3-3.9,6.6-6.3s4.6-5,6.8-7.8c2.2-2.7,4.1-5.2,5.7-7.4c1.4-2.8,2.6-5.6,3.8-8.3c1.1-2.7,1.9-5,2.4-6.9L776.5,105.6
	L776.5,105.6z M720.6,147.4c-2.6,2.8-5.3,5.5-8.2,8.1c-3.1,2.7-6.1,4.7-9,6.2c-2.9,1.5-5.6,2.6-8,3.3c-2.5,0.7-4.7,1.1-6.6,1.3
	c-2,0.1-3.5,0.2-4.6,0.2c-7.1,0-12.2-2.1-15.4-6.4c-3.1-4.3-4.2-10.1-3.3-17.5c0.8-6.4,2.8-12.8,5.9-18.9
	c3.1-6.2,7.6-12.8,13.3-20.1c2-2.4,4.5-4.9,7.5-7.6c3-2.7,6.3-5.2,9.8-7.5c3.5-2.3,7.2-4.1,11.1-5.5c3.9-1.4,7.6-2.1,11.1-2
	c3.7,0.1,6.5,1.4,8.4,3.9c1.9,2.5,2.4,5.8,1.7,9.9c-0.5,3.8-2.2,7.6-4.9,11.4c-1.1,1.2-2.2,2-3.3,2.2c-1.1,0.2-2.1,0.1-2.9-0.5
	c-0.8-0.6-1.3-1.5-1.6-2.7c-0.3-1.2-0.2-2.7,0.3-4.3c1.1-1.5,1.7-3,1.9-4.5c0.1-0.5,0-0.8-0.2-1.1c-0.2-0.2-0.7-0.3-1.4-0.1
	c-3.6,0.8-7.2,2.6-10.8,5.5c-3.6,2.9-6.9,6.3-10,10.1c-3.1,3.8-5.8,7.8-8.2,11.9c-2.4,4.1-4.1,7.8-5.3,10.9l-1.5,5.7
	c-0.2,1.4-0.3,2.8-0.3,4.2c0,1.4,0.2,2.7,0.5,3.8c0.3,1.2,0.8,2.2,1.5,3.1s1.6,1.5,2.7,1.8l-0.3-0.1c1.7,0.5,3.8,0.3,6.3-0.4
	c2.5-0.8,5.2-2.1,8.2-4.1c3-1.9,6.1-4.5,9.3-7.6c3.3-3.1,6.5-6.8,9.8-11.1c0.7-1,1.4-1.9,2.1-2.9l0.3-0.7c2.1-4.2,4.6-8.3,7.5-12.5
	c2.9-4.2,6.1-8.2,9.6-12.1s7.2-7.3,11.1-10.4c3.9-3,7.9-5.4,11.9-7.3c4-1.8,8.1-2.7,12.1-2.7c1.2,0,2.3,0.1,3.4,0.3
	c1.1,0.2,2.3,0.5,3.5,0.9c2.2,0.8,3.8,2,5,3.6s1.9,3.6,2.3,5.8c0.4,2.2,0.5,4.6,0.4,7.1c-0.1,2.5-0.5,5-1,7.5c-0.1,0.6-0.4,1-1,1.3
	c-0.6,0.3-1.3,0.6-2.1,0.7c-0.8,0.1-1.7,0.2-2.5,0.2s-1.6-0.1-2.2-0.4c1.3,0.8,2.5,1.8,3.5,3c1.1,1.1,2,2.4,2.7,3.8
	c0.7,1.4,1.2,2.8,1.4,4.2c0.2,1.4,0.1,2.8-0.5,4.1c-0.4,0.7-0.8,1.4-1.2,2.2c-0.5,0.8-0.9,1.6-1.4,2.5c-1,1.8-2,3.8-3.1,5.8
	c-1,2.1-2,4.1-2.9,6.1c-0.9,2-1.7,3.9-2.4,5.6c-0.7,1.8-1.1,3.2-1.3,4.5c0,0.2-0.1,0.3-0.2,0.4c-0.1,0.1-0.2,0.2-0.3,0.3h1
	c2.7-0.9,5.4-2.5,7.9-4.7c2-1.7,4-3.7,6-5.8c0.8-2.1,1.7-4.2,2.9-6.3c2.2-3.8,4.8-6.8,7.8-9.1l3.8-5.1c3.1-4.5,6.2-9.1,9.5-13.5
	c3.2-4.5,6.6-8.8,10-13c0.7-0.8,1.4-1.5,1.9-2.3s1.1-1.5,1.8-2.3c1.9-2.6,4.1-5.3,6.6-8.2s6-6.3,10.6-10.2c1.3,0.8,2.8,1.8,4.6,3.2
	c1.8,1.4,3.3,2.9,4.6,4.6c1.2,1.7,1.9,3.4,2.1,5.2c0.2,1.8-0.7,3.4-2.6,4.8l0.4-0.1c-1.8,1.6-3.1,2.9-3.9,3.8
	c-0.8,0.9-1.6,2-2.5,3.2l-2.2,2.8c-2.4,3.3-4.2,6.8-5.4,10.5c-1.2,3.7-2.2,7.3-2.8,11c-0.4,2-0.6,4-0.8,6c-0.2,2-0.4,4.1-0.5,6.2
	l-1,8.5c-0.5,4.3-1.7,8.2-3.4,11.7s-3.9,6.6-6.5,9c-2.6,2.5-5.5,4.3-8.7,5.6c-3.2,1.3-6.6,1.8-10.2,1.6c-3.5-0.3-6.5-1.1-9-2.4
	c-2.5-1.3-4.4-3-5.8-5c-1.1-1.6-1.9-3.3-2.5-5.3c-1.5,1.4-3,2.8-4.6,4.1c-0.8,0.8-1.8,1.6-3.1,2.5c-1.2,0.9-2.6,1.8-4.1,2.6
	s-3.1,1.5-4.8,2c-1.7,0.5-3.5,0.7-5.3,0.6c-4.4-0.4-7.4-2-9.2-4.8c-1.8-2.9-2.4-6.4-2-10.7c-4.1,4-8.2,7.4-12.4,10.3
	s-8.2,4.4-12,4.5c-3.5-0.4-6.2-1.4-8.2-3.1c-2-1.7-3.6-3.6-4.6-5.9c-1-2.3-1.6-4.7-1.7-7.3C720.7,148.6,720.6,148,720.6,147.4
	L720.6,147.4z M822.8,118.5c0.1-0.8,0.2-1.5,0.4-2.3c0.2-0.8,0.4-1.6,0.5-2.3l-5.7,8l-0.1,0.1c0.2,0.8,0.4,2.1,0.5,3.9
	c0.2,1.8,0.2,3.8,0.1,5.8c-0.1,2-0.3,4-0.8,5.8c-0.4,1.8-1.1,3.2-2,4.1c-0.5-1.5-1.5-2.4-2.7-2.6c-1.3-0.2-2.6,0-4,0.6
	c-1.4,0.7-2.6,1.6-3.7,2.8c-1.1,1.2-1.8,2.4-2,3.6c-0.1,0.5-0.1,1.1,0,1.8c0.1,0.7,0.2,1.4,0.4,2.1c0.6,1.5,1.6,2.6,2.9,3.3
	c1.3,0.7,2.5,1.2,3.8,1.4c1.4,0.2,2.6-0.1,3.7-0.7c1.1-0.7,2.1-1.6,2.9-2.7s1.6-2.5,2.2-4c0.6-1.5,1-3.1,1.3-4.8
	c0.4-3.4,0.6-7,0.8-10.8c0.2-2,0.3-4.1,0.5-6.3S822.3,120.8,822.8,118.5L822.8,118.5z M911.9,105.6c-0.1,0.6-0.4,1-1,1.3
	c-0.6,0.3-1.3,0.6-2.1,0.7c-0.8,0.1-1.7,0.2-2.5,0.2s-1.6-0.1-2.2-0.4c1.3,0.8,2.5,1.8,3.5,3c1.1,1.1,2,2.4,2.7,3.8
	c0.7,1.4,1.2,2.8,1.4,4.2c0.2,1.4,0.1,2.8-0.5,4.1c-0.4,0.7-0.8,1.4-1.2,2.2c-0.5,0.8-0.9,1.6-1.4,2.5c-1,1.8-2,3.8-3.1,5.8
	c-1,2.1-2,4.1-2.9,6.1c-0.9,2-1.7,3.9-2.4,5.6c-0.7,1.8-1.1,3.2-1.3,4.5c0,0.2-0.1,0.3-0.2,0.4c-0.1,0.1-0.2,0.2-0.3,0.3h1
	c2.7-0.9,5.4-2.5,7.9-4.7c2.5-2.2,5-4.7,7.4-7.5c2.4-2.8,4.7-5.8,7-9c2.2-3.2,4.3-6.2,6.3-9.2c0.7-0.8,1.3-1.4,1.6-2
	c0.4-0.6,0.7-1.2,1.1-1.8c0.4-0.5,1-0.6,2-0.4c1,0.2,2,0.7,2.9,1.3c0.9,0.7,1.6,1.5,2.2,2.3c0.5,0.9,0.5,1.7,0,2.3l-4,5.7v0.1
	c-3.9,5.6-8,11.1-12.2,16.6c-4.2,5.4-8.9,10.4-14.1,14.7c-0.8,0.8-1.8,1.6-3.1,2.5c-1.2,0.9-2.6,1.8-4.1,2.6s-3.1,1.5-4.8,2
	c-1.7,0.5-3.5,0.7-5.3,0.6c-4.4-0.4-7.4-2-9.2-4.8c-1.8-2.9-2.4-6.4-2-10.7c-4.1,4-8.2,7.4-12.4,10.3s-8.2,4.4-12,4.5
	c-3.5-0.4-6.2-1.4-8.2-3.1c-2-1.7-3.6-3.6-4.6-5.9c-1-2.3-1.6-4.7-1.7-7.3c-0.1-2.6-0.1-5.1,0.2-7.3c0.4-2.1,0.8-3.8,1.2-5.1
	c0.9-3.5,2.4-7.3,4.5-11.5c2.1-4.2,4.6-8.3,7.5-12.5s6.1-8.2,9.6-12.1s7.2-7.3,11.1-10.4s7.9-5.4,11.9-7.3c4-1.8,8.1-2.7,12.1-2.7
	c1.2,0,2.3,0.1,3.4,0.3c1.1,0.2,2.3,0.5,3.5,0.9c2.2,0.8,3.8,2,5,3.6c1.1,1.7,1.9,3.6,2.3,5.8c0.4,2.2,0.5,4.6,0.4,7.1
	C912.8,100.6,912.5,103.1,911.9,105.6L911.9,105.6z"/>
<path class="st6" d="M895.9,105.6c0.9-0.5,2-0.6,3.2-0.3c1.2,0.3,2.5,0.8,3.8,1.6c-0.5-0.5-0.6-1-0.4-1.6c0.1-0.3,0.1-0.6,0.1-1
	c0-0.4,0-0.8,0.1-1.1c0.1-0.9,0.1-1.9,0.1-3s-0.1-2-0.4-2.9c-0.3-0.9-0.7-1.6-1.4-2.2c-0.6-0.6-1.5-0.9-2.6-1
	c-3.4-0.1-6.8,1.2-10.4,3.8s-7,5.9-10.2,9.9c-3.3,4-6.2,8.2-8.9,12.8c-2.7,4.6-4.8,8.7-6.3,12.4c-0.5,1-0.9,2.3-1.4,3.9
	c-0.5,1.6-0.8,3.1-1,4.6c-0.2,1-0.3,2-0.3,3s0.2,1.8,0.6,2.4c0.4,0.7,1,1.1,1.8,1.3s2,0.1,3.4-0.3c1.4-0.4,3.1-1.5,5.2-3.3
	c2.1-1.8,4.3-3.9,6.6-6.3s4.6-5,6.8-7.8c2.2-2.7,4.1-5.2,5.7-7.4c1.4-2.8,2.6-5.6,3.8-8.3c1.1-2.7,1.9-5,2.4-6.9L895.9,105.6
	L895.9,105.6z M776.5,105.6c0.9-0.5,2-0.6,3.2-0.3c1.2,0.3,2.5,0.8,3.8,1.6c-0.5-0.5-0.6-1-0.4-1.6c0.1-0.3,0.1-0.6,0.1-1
	c0-0.4,0-0.8,0.1-1.1c0.1-0.9,0.1-1.9,0.1-3s-0.1-2-0.4-2.9c-0.3-0.9-0.7-1.6-1.4-2.2c-0.6-0.6-1.5-0.9-2.6-1
	c-3.4-0.1-6.8,1.2-10.4,3.8s-7,5.9-10.2,9.9c-3.3,4-6.2,8.2-8.9,12.8c-2.7,4.6-4.8,8.7-6.3,12.4c-0.5,1-0.9,2.3-1.4,3.9
	c-0.5,1.6-0.8,3.1-1,4.6c-0.2,1-0.3,2-0.3,3s0.2,1.8,0.6,2.4c0.4,0.7,1,1.1,1.8,1.3s2,0.1,3.4-0.3c1.4-0.4,3.1-1.5,5.2-3.3
	c2.1-1.8,4.3-3.9,6.6-6.3s4.6-5,6.8-7.8c2.2-2.7,4.1-5.2,5.7-7.4c1.4-2.8,2.6-5.6,3.8-8.3c1.1-2.7,1.9-5,2.4-6.9L776.5,105.6
	L776.5,105.6z M720.6,147.4c-2.6,2.8-5.3,5.5-8.2,8.1c-3.1,2.7-6.1,4.7-9,6.2c-2.9,1.5-5.6,2.6-8,3.3c-2.5,0.7-4.7,1.1-6.6,1.3
	c-2,0.1-3.5,0.2-4.6,0.2c-7.1,0-12.2-2.1-15.4-6.4c-3.1-4.3-4.2-10.1-3.3-17.5c0.8-6.4,2.8-12.8,5.9-18.9
	c3.1-6.2,7.6-12.8,13.3-20.1c2-2.4,4.5-4.9,7.5-7.6c3-2.7,6.3-5.2,9.8-7.5c3.5-2.3,7.2-4.1,11.1-5.5c3.9-1.4,7.6-2.1,11.1-2
	c3.7,0.1,6.5,1.4,8.4,3.9c1.9,2.5,2.4,5.8,1.7,9.9c-0.5,3.8-2.2,7.6-4.9,11.4c-1.1,1.2-2.2,2-3.3,2.2c-1.1,0.2-2.1,0.1-2.9-0.5
	c-0.8-0.6-1.3-1.5-1.6-2.7c-0.3-1.2-0.2-2.7,0.3-4.3c1.1-1.5,1.7-3,1.9-4.5c0.1-0.5,0-0.8-0.2-1.1c-0.2-0.2-0.7-0.3-1.4-0.1
	c-3.6,0.8-7.2,2.6-10.8,5.5c-3.6,2.9-6.9,6.3-10,10.1c-3.1,3.8-5.8,7.8-8.2,11.9c-2.4,4.1-4.1,7.8-5.3,10.9l-1.5,5.7
	c-0.2,1.4-0.3,2.8-0.3,4.2c0,1.4,0.2,2.7,0.5,3.8c0.3,1.2,0.8,2.2,1.5,3.1s1.6,1.5,2.7,1.8l-0.3-0.1c1.7,0.5,3.8,0.3,6.3-0.4
	c2.5-0.8,5.2-2.1,8.2-4.1c3-1.9,6.1-4.5,9.3-7.6c3.3-3.1,6.5-6.8,9.8-11.1c0.7-1,1.4-1.9,2.1-2.9l0.3-0.7c2.1-4.2,4.6-8.3,7.5-12.5
	c2.9-4.2,6.1-8.2,9.6-12.1s7.2-7.3,11.1-10.4c3.9-3,7.9-5.4,11.9-7.3c4-1.8,8.1-2.7,12.1-2.7c1.2,0,2.3,0.1,3.4,0.3
	c1.1,0.2,2.3,0.5,3.5,0.9c2.2,0.8,3.8,2,5,3.6s1.9,3.6,2.3,5.8c0.4,2.2,0.5,4.6,0.4,7.1c-0.1,2.5-0.5,5-1,7.5c-0.1,0.6-0.4,1-1,1.3
	c-0.6,0.3-1.3,0.6-2.1,0.7c-0.8,0.1-1.7,0.2-2.5,0.2s-1.6-0.1-2.2-0.4c1.3,0.8,2.5,1.8,3.5,3c1.1,1.1,2,2.4,2.7,3.8
	c0.7,1.4,1.2,2.8,1.4,4.2c0.2,1.4,0.1,2.8-0.5,4.1c-0.4,0.7-0.8,1.4-1.2,2.2c-0.5,0.8-0.9,1.6-1.4,2.5c-1,1.8-2,3.8-3.1,5.8
	c-1,2.1-2,4.1-2.9,6.1c-0.9,2-1.7,3.9-2.4,5.6c-0.7,1.8-1.1,3.2-1.3,4.5c0,0.2-0.1,0.3-0.2,0.4c-0.1,0.1-0.2,0.2-0.3,0.3h1
	c2.7-0.9,5.4-2.5,7.9-4.7c2-1.7,4-3.7,6-5.8c0.8-2.1,1.7-4.2,2.9-6.3c2.2-3.8,4.8-6.8,7.8-9.1l3.8-5.1c3.1-4.5,6.2-9.1,9.5-13.5
	c3.2-4.5,6.6-8.8,10-13c0.7-0.8,1.4-1.5,1.9-2.3s1.1-1.5,1.8-2.3c1.9-2.6,4.1-5.3,6.6-8.2s6-6.3,10.6-10.2c1.3,0.8,2.8,1.8,4.6,3.2
	c1.8,1.4,3.3,2.9,4.6,4.6c1.2,1.7,1.9,3.4,2.1,5.2c0.2,1.8-0.7,3.4-2.6,4.8l0.4-0.1c-1.8,1.6-3.1,2.9-3.9,3.8
	c-0.8,0.9-1.6,2-2.5,3.2l-2.2,2.8c-2.4,3.3-4.2,6.8-5.4,10.5c-1.2,3.7-2.2,7.3-2.8,11c-0.4,2-0.6,4-0.8,6c-0.2,2-0.4,4.1-0.5,6.2
	l-1,8.5c-0.5,4.3-1.7,8.2-3.4,11.7s-3.9,6.6-6.5,9c-2.6,2.5-5.5,4.3-8.7,5.6c-3.2,1.3-6.6,1.8-10.2,1.6c-3.5-0.3-6.5-1.1-9-2.4
	c-2.5-1.3-4.4-3-5.8-5c-1.1-1.6-1.9-3.3-2.5-5.3c-1.5,1.4-3,2.8-4.6,4.1c-0.8,0.8-1.8,1.6-3.1,2.5c-1.2,0.9-2.6,1.8-4.1,2.6
	s-3.1,1.5-4.8,2c-1.7,0.5-3.5,0.7-5.3,0.6c-4.4-0.4-7.4-2-9.2-4.8c-1.8-2.9-2.4-6.4-2-10.7c-4.1,4-8.2,7.4-12.4,10.3
	s-8.2,4.4-12,4.5c-3.5-0.4-6.2-1.4-8.2-3.1c-2-1.7-3.6-3.6-4.6-5.9c-1-2.3-1.6-4.7-1.7-7.3C720.7,148.6,720.6,148,720.6,147.4
	L720.6,147.4z M822.8,118.5c0.1-0.8,0.2-1.5,0.4-2.3c0.2-0.8,0.4-1.6,0.5-2.3l-5.7,8l-0.1,0.1c0.2,0.8,0.4,2.1,0.5,3.9
	c0.2,1.8,0.2,3.8,0.1,5.8c-0.1,2-0.3,4-0.8,5.8c-0.4,1.8-1.1,3.2-2,4.1c-0.5-1.5-1.5-2.4-2.7-2.6c-1.3-0.2-2.6,0-4,0.6
	c-1.4,0.7-2.6,1.6-3.7,2.8c-1.1,1.2-1.8,2.4-2,3.6c-0.1,0.5-0.1,1.1,0,1.8c0.1,0.7,0.2,1.4,0.4,2.1c0.6,1.5,1.6,2.6,2.9,3.3
	c1.3,0.7,2.5,1.2,3.8,1.4c1.4,0.2,2.6-0.1,3.7-0.7c1.1-0.7,2.1-1.6,2.9-2.7s1.6-2.5,2.2-4c0.6-1.5,1-3.1,1.3-4.8
	c0.4-3.4,0.6-7,0.8-10.8c0.2-2,0.3-4.1,0.5-6.3S822.3,120.8,822.8,118.5L822.8,118.5z M911.9,105.6c-0.1,0.6-0.4,1-1,1.3
	c-0.6,0.3-1.3,0.6-2.1,0.7c-0.8,0.1-1.7,0.2-2.5,0.2s-1.6-0.1-2.2-0.4c1.3,0.8,2.5,1.8,3.5,3c1.1,1.1,2,2.4,2.7,3.8
	c0.7,1.4,1.2,2.8,1.4,4.2c0.2,1.4,0.1,2.8-0.5,4.1c-0.4,0.7-0.8,1.4-1.2,2.2c-0.5,0.8-0.9,1.6-1.4,2.5c-1,1.8-2,3.8-3.1,5.8
	c-1,2.1-2,4.1-2.9,6.1c-0.9,2-1.7,3.9-2.4,5.6c-0.7,1.8-1.1,3.2-1.3,4.5c0,0.2-0.1,0.3-0.2,0.4c-0.1,0.1-0.2,0.2-0.3,0.3h1
	c2.7-0.9,5.4-2.5,7.9-4.7c2.5-2.2,5-4.7,7.4-7.5c2.4-2.8,4.7-5.8,7-9c2.2-3.2,4.3-6.2,6.3-9.2c0.7-0.8,1.3-1.4,1.6-2
	c0.4-0.6,0.7-1.2,1.1-1.8c0.4-0.5,1-0.6,2-0.4c1,0.2,2,0.7,2.9,1.3c0.9,0.7,1.6,1.5,2.2,2.3c0.5,0.9,0.5,1.7,0,2.3l-4,5.7v0.1
	c-3.9,5.6-8,11.1-12.2,16.6c-4.2,5.4-8.9,10.4-14.1,14.7c-0.8,0.8-1.8,1.6-3.1,2.5c-1.2,0.9-2.6,1.8-4.1,2.6s-3.1,1.5-4.8,2
	c-1.7,0.5-3.5,0.7-5.3,0.6c-4.4-0.4-7.4-2-9.2-4.8c-1.8-2.9-2.4-6.4-2-10.7c-4.1,4-8.2,7.4-12.4,10.3s-8.2,4.4-12,4.5
	c-3.5-0.4-6.2-1.4-8.2-3.1c-2-1.7-3.6-3.6-4.6-5.9c-1-2.3-1.6-4.7-1.7-7.3c-0.1-2.6-0.1-5.1,0.2-7.3c0.4-2.1,0.8-3.8,1.2-5.1
	c0.9-3.5,2.4-7.3,4.5-11.5c2.1-4.2,4.6-8.3,7.5-12.5s6.1-8.2,9.6-12.1s7.2-7.3,11.1-10.4s7.9-5.4,11.9-7.3c4-1.8,8.1-2.7,12.1-2.7
	c1.2,0,2.3,0.1,3.4,0.3c1.1,0.2,2.3,0.5,3.5,0.9c2.2,0.8,3.8,2,5,3.6c1.1,1.7,1.9,3.6,2.3,5.8c0.4,2.2,0.5,4.6,0.4,7.1
	C912.8,100.6,912.5,103.1,911.9,105.6L911.9,105.6z"/>
<rect x="907" y="180.5" class="st7" width="9.6" height="18.9"/>
<rect x="916.6" y="180.5" class="st5" width="9.6" height="18.9"/>
<rect x="926.2" y="180.5" class="st8" width="9.6" height="18.9"/>
<path class="st4" d="M894.1,199.4v-11.5c0-2.5-1.2-4.1-2.8-4.8c-2.1-1-5.8-0.8-7.7,0.8l0.1-1.1h-1.9v16.6h1.9v-14.1
	c2.8-1.6,8.6-2.2,8.6,2.7v11.4L894.1,199.4L894.1,199.4z M870.3,193.6c0,3-2.2,4.4-4.5,4.4c-2.5,0-4.3-1.3-4.3-4.2v-5.1
	c0-3.6,2.3-4.6,4.3-4.6c2.2,0,4.5,1.1,4.5,4.1V193.6L870.3,193.6z M868.6,206.3c2.5-0.8,3.5-2.2,3.5-4.8v-18.7h-1.9l0.1,1.9
	c-1-1.6-2.6-2.2-4.5-2.2c-3.8,0-6.3,2.2-6.3,6.1v4.9c0,4.2,2.4,6.2,6.2,6.2c2.1,0,3.5-0.8,4.5-2.4v4.1c0,1.8-0.7,2.9-2.2,3.4
	L868.6,206.3L868.6,206.3z M850.5,199.4v-16.6h-1.9v16.6H850.5z M849.6,178c0.6,0,1.1-0.5,1.1-1.1c0-0.6-0.5-1.1-1.1-1.1
	s-1.1,0.5-1.1,1.1S849,178,849.6,178z M828.3,195.1c0.1,2.5,2.2,4.7,6.1,4.7s5.8-2.2,5.8-4.6c0-6-9.3-4.3-9.7-8.1
	c-0.2-2.1,1.8-3.1,3.8-3.1c1.9,0,3.1,0.9,3.1,0.9l0.6-1.5c0,0-1.4-1-3.7-1c-4.4,0-5.9,2.8-5.7,4.9c0.6,5.4,9.7,3.6,9.7,8
	c0,2.3-2.3,2.9-4,2.9c-1.9,0-4.1-0.8-4.4-3H828.3z M818.5,190.7l-8.2,0.4v-2.9c0-3,2-4.1,4.2-4.1c1.3,0,4,0.6,4,3.8L818.5,190.7
	L818.5,190.7z M818.8,196.8c-4,2.1-8.5,1.9-8.5-1.9v-2l10.1-0.6V188c0-3.5-2.2-5.6-5.8-5.6s-6.1,2-6.1,5.7v6.8
	c0,3.4,2.4,4.9,5.6,4.8c1.9,0,3.9-0.6,5.5-1.6L818.8,196.8L818.8,196.8z M797.3,193c0,4.1-3.2,4.6-5.7,4.6h-4.5v-19.9h4.7
	c2.5,0,5.5,1.5,5.5,5.5V193z M792.2,199.3c3.8,0,7-1.5,7-6.6v-9.1c0-4.4-2.6-7.5-7.7-7.5h-6.2v23.2L792.2,199.3L792.2,199.3z
	 M772.6,199.3v-11.5c0-2.5-1.2-4.1-2.8-4.8c-2.1-1-5.8-0.8-7.7,0.8l0.1-1.1h-1.9v16.6h1.9v-14.1c2.8-1.6,8.6-2.2,8.6,2.7v11.4
	L772.6,199.3L772.6,199.3z M749.1,197.8c-5.3,0.7-9.1,0-9.1-3.9v-2.9c0-5.2,6.1-3.2,9.1-1.8V197.8L749.1,197.8z M750.9,189.5
	c0-3.2,0-7-6.9-7l-0.1,1.4c4.4,0,5.1,2,5.1,4c-2.2-1.7-6.3-2.4-8.6-1.3c-1.4,0.7-2.3,2-2.3,4.4v2.8c0,7.1,7.5,6.1,12.8,5.6V189.5
	L750.9,189.5z M729.4,199.3v-16.6h-1.9v16.6H729.4z M728.5,178c0.6,0,1.1-0.5,1.1-1.1c0-0.6-0.5-1.1-1.1-1.1c-0.6,0-1.1,0.5-1.1,1.1
	S727.9,178,728.5,178z M717.8,199.3v-23.2h-1.9v23.2H717.8z M704.7,197.8c-5.3,0.7-9.1,0-9.1-3.9v-2.9c0-5.2,6.1-3.2,9.1-1.8V197.8
	L704.7,197.8z M706.5,189.4c0-3.2,0-7-6.9-7l-0.1,1.4c4.4,0,5.1,2,5.1,4c-2.2-1.7-6.3-2.4-8.6-1.3c-1.4,0.7-2.3,2-2.3,4.4v2.8
	c0,7.1,7.5,6.1,12.8,5.6V189.4L706.5,189.4z M685.4,198.3c-1.6-0.5-2.2-1.8-2.2-3.4v-10.5h3.2l0.8-1.8h-4v-6.6h-1.9V195
	c0,2.6,1,4.1,3.5,4.8L685.4,198.3L685.4,198.3z M671.2,199.3v-23.2h-4.1v1.6l2.2,0.1v21.5L671.2,199.3L671.2,199.3z"/>
</svg>
